<svg xmlns="http://www.w3.org/2000/svg" width="288.695" height="123.021" viewBox="0 0 288.695 123.021"><path fill="none" d="M18.083 18.264c-4.437 0-9.124.95-9.124 6.18 0 2.65 1.373 4.445 3.729 4.445 1.727 0 3.271-1.062 4.246-2.788 1.209-2.123 1.149-4.117 1.149-6.508v-1.329zm80.455 0c-4.445 0-9.132.95-9.132 6.18 0 2.65 1.381 4.445 3.737 4.445 1.718 0 3.271-1.062 4.247-2.788 1.208-2.123 1.148-4.117 1.148-6.508v-1.329zm55.975-11.532c-4.522 0-4.808 6.163-4.808 10.004 0 3.85-.061 12.067 4.756 12.067 4.755 0 4.98-6.629 4.98-10.669 0-2.659-.112-5.834-.915-8.355-.69-2.192-2.062-3.047-4.013-3.047z"/><path fill="#F90" d="M121.342 44.038c-12.913 5.481-26.957 8.123-39.723 8.123-18.929 0-37.253-5.188-52.074-13.811-1.295-.76-2.262.57-1.183 1.545C42.095 52.298 60.247 59.756 80.41 59.756c14.38 0 31.082-4.531 42.605-13.024 1.909-1.416.278-3.523-1.673-2.694z"/><path fill="#F90" d="M114.075 39.247c-1.019.708-.846 1.692.284 1.554 3.712-.44 11.981-1.433 13.448.449 1.476 1.89-1.64 9.667-3.03 13.138-.423 1.053.484 1.477 1.434.682 6.188-5.17 7.776-16.003 6.516-17.565-1.26-1.555-12.067-2.893-18.652 1.742z"/><path fill="#221F1F" d="M136.629 26.102c-3.522-1.985-7.623-2.563-11.507-2.469l10.454-14.924c.967-1.337 1.51-2.183 1.52-2.832V2.02c0-.673-.519-1.139-1.165-1.139h-20.173c-.621 0-1.139.458-1.139 1.139v4.506c0 .673.518 1.13 1.165 1.13h10.539l-12.11 17.367c-.733 1.114-.742 2.365-.742 3.099v4.566c0 .656.734 1.416 1.433 1.036 6.862-3.643 15.105-3.289 21.311-.035.76.396 1.485-.371 1.485-1.028v-4.808c-.062-.646-.277-1.303-1.071-1.751zM34.897 34.638h6.137c.656 0 1.183-.509 1.183-1.139V16.806c0-3.643-.173-8.684 4.238-8.684 4.359 0 3.78 5.17 3.78 8.684l.009 16.693c0 .604.483 1.096 1.104 1.139h6.128c.656 0 1.183-.509 1.183-1.139V16.806c0-1.787-.061-4.445.57-6.034.631-1.588 2.184-2.581 3.668-2.581 1.778 0 3.15.596 3.608 2.711.293 1.26.173 4.574.173 5.904v16.693c0 .604.492 1.096 1.104 1.139h6.128c.656 0 1.183-.509 1.183-1.139l.009-19.878c0-3.375.397-7.225-1.545-9.875C71.839 1.365 69.025.303 66.453.303c-3.617 0-6.992 1.855-8.476 5.834C56.25 2.158 53.851.303 50.01.303c-3.781 0-6.586 1.855-8.079 5.834h-.113V2.02A1.155 1.155 0 0 0 40.705.967h-5.722c-.656 0-1.183.501-1.183 1.131v31.496c.045.561.511 1.001 1.097 1.044zM154.462.302c-8.882 0-13.811 7.622-13.811 17.427 0 9.746 4.868 17.565 13.811 17.565 8.588 0 14.035-7.622 14.035-17.228 0-9.944-4.93-17.764-14.035-17.764zm0 28.502c-4.817 0-4.756-8.217-4.756-12.067 0-3.842.285-10.004 4.808-10.004 1.951 0 3.323.854 4.014 3.047.803 2.521.915 5.697.915 8.355-.001 4.039-.226 10.669-4.981 10.669zm42.225-24.79c-1.726-2.719-4.412-3.711-7.165-3.711-4.238 0-6.646 2.055-8.363 6.361h-.111V1.847a1.178 1.178 0 0 0-1.098-.881h-5.688c-.62 0-1.128.45-1.181 1.027l.008 31.505c0 .604.493 1.096 1.106 1.139h6.111c.655 0 1.191-.509 1.199-1.139v-16.96c0-2.123.112-4.04.976-5.964.681-1.52 2.054-2.521 3.547-2.521 4.238 0 3.841 5.041 3.841 8.484v17.108c.061.535.527.949 1.086.992h6.157c.603 0 1.112-.439 1.181-.992V13.819c-.001-3.047-.001-7.285-1.606-9.805zm-98.149 9.331c-3.556.405-8.208.664-11.54 2.131-3.85 1.657-6.543 5.05-6.543 10.03 0 6.379 4.014 9.564 9.184 9.564 4.359 0 6.75-1.028 10.117-4.463 1.113 1.614 1.484 2.399 3.521 4.091.458.242 1.044.216 1.45-.146l.009.018a260.649 260.649 0 0 1 4.704-4.074c.5-.415.415-1.079.026-1.632-1.122-1.553-2.314-2.813-2.314-5.688v-9.564c0-4.048.286-7.768-2.701-10.556C102.094.794 98.192 0 95.206 0c-5.835 0-12.361 2.175-13.724 9.391-.146.768.414 1.174.915 1.286l5.947.639c.561-.025.966-.57 1.069-1.123.51-2.486 2.59-3.685 4.929-3.685 1.27 0 2.702.466 3.444 1.597.863 1.259.751 2.986.751 4.445v.795zM97.39 26.102c-.976 1.727-2.529 2.788-4.247 2.788-2.356 0-3.737-1.795-3.737-4.445 0-5.23 4.687-6.18 9.132-6.18v1.33c0 2.389.06 4.384-1.148 6.507zm-68.379 2.761c-1.122-1.553-2.313-2.813-2.313-5.688v-9.564c0-4.048.285-7.768-2.702-10.556C21.639.794 17.738 0 14.751 0 8.917 0 2.399 2.175 1.027 9.391c-.138.768.415 1.174.916 1.286l5.956.639c.553-.025.958-.57 1.061-1.123.509-2.486 2.599-3.685 4.938-3.685 1.26 0 2.694.466 3.444 1.597.854 1.259.743 2.986.743 4.445v.794c-3.557.405-8.209.664-11.541 2.131C2.702 17.133 0 20.526 0 25.506c0 6.379 4.023 9.564 9.184 9.564 4.368 0 6.75-1.028 10.117-4.463 1.122 1.614 1.484 2.399 3.521 4.091.458.242 1.045.216 1.451-.146l.017.018a260.707 260.707 0 0 1 4.705-4.074c.5-.415.412-1.08.016-1.633zm-12.076-2.761c-.975 1.727-2.52 2.788-4.246 2.788-2.356 0-3.729-1.795-3.729-4.445 0-5.23 4.687-6.18 9.124-6.18v1.33c-.001 2.389.06 4.384-1.149 6.507z"/><path d="M56.447 115.305h.217l10.525-45.988h8.897l-15.083 52.29h-8.897l-10.2-45.988h-.217l-9.548 45.988h-8.898L7.727 69.316h8.897l10.959 45.988h.217l9.548-45.988h8.897l10.202 45.989zm22.896 6.301v-52.29h8.572v52.29h-8.572zm44.813-38.277c.325-6.206-2.279-9.122-9.55-9.122-6.075 0-9.548 2.446-9.548 7.901 0 6.771 6.402 7.616 12.262 9.779 8.68 3.386 17.361 5.268 17.361 15.047 0 9.969-8.03 16.177-20.399 16.082-5.317.095-11.828-1.504-14.975-5.454-3.58-4.138-3.364-7.618-3.364-11.191h8.138c-.325 6.396 2.171 10.345 10.201 10.345 6.944 0 11.501-2.444 11.501-8.84 0-7.429-8.681-8.089-14.865-10.346-9.332-3.009-14.758-5.736-14.758-14.859 0-9.028 7.271-14.764 17.688-14.764 11.936 0 18.88 4.702 18.663 15.422h-8.355zm25.091 38.277h-9.601V51.071h9.601v23.982h.243c4.376-4.515 9.357-7.147 16.649-7.147 10.088 0 16.65 4.136 16.65 13.353v40.347h-9.6V83.329c0-5.454-2.309-9.122-10.087-9.122-3.525 0-6.927 1.034-9.479 2.916-3.89 2.727-4.375 5.735-4.375 9.498v34.985zm40.384 0V51.071h8.571v70.535h-8.571zm17.576 0v-52.29h8.572v52.29h-8.572zm42.643-38.277c.324-6.206-2.279-9.122-9.55-9.122-6.075 0-9.549 2.446-9.549 7.901 0 6.771 6.401 7.616 12.261 9.779 8.682 3.386 17.361 5.268 17.361 15.047 0 9.969-8.028 16.177-20.398 16.082-5.317.095-11.827-1.504-14.976-5.454-3.579-4.138-3.36-7.618-3.36-11.191h8.136c-.324 6.396 2.171 10.345 10.2 10.345 6.943 0 11.503-2.444 11.503-8.84 0-7.429-8.683-8.089-14.867-10.346-9.332-3.009-14.756-5.736-14.756-14.859 0-9.028 7.269-14.764 17.687-14.764 11.937 0 18.88 4.702 18.662 15.422h-8.354zm28.753-14.013h10.092v6.302h-9.982v35.643c0 1.787-.761 4.044 4.014 4.044h5.751v6.302h-9.439c-5.099.094-8.897-.658-8.897-8.559v-37.43h-8.355v-6.302h8.355v-14.2h8.463v14.2z" fill="#F90"/><path fill="#1FA4D1" d="M209.881 34.087c-2.292-1.491-7.223-10.918-7.223-10.918s-1.737 10.412-3.326 12.633c-1.59 2.219-10.697 6.387-10.697 6.387s10.049.828 12.337 2.318c2.287 1.489 7.224 10.917 7.224 10.917s1.734-10.414 3.322-12.633c1.591-2.22 10.697-6.387 10.697-6.387s-10.048-.827-12.334-2.317zm-1.77 6.958c-.794 1.109-1.301 5.591-1.301 5.591s-2.104-3.989-3.246-4.731c-1.144-.747-5.811-1.161-5.811-1.161s4.195-2.083 4.988-3.194c.796-1.11 1.301-5.593 1.301-5.593s2.104 3.992 3.248 4.735c1.145.745 5.812 1.159 5.812 1.159s-4.196 2.082-4.991 3.194z"/><path fill="#92363B" d="M220.012 55.358c-.981-.639-3.096-4.682-3.096-4.682s-.745 4.464-1.427 5.417c-.68.952-4.585 2.738-4.585 2.738s4.309.356 5.289.992c.98.64 3.098 4.682 3.098 4.682s.742-4.465 1.425-5.416c.68-.952 4.585-2.739 4.585-2.739s-4.308-.354-5.289-.992zm-.759 2.984c-.34.473-.558 2.395-.558 2.395s-.903-1.71-1.393-2.028c-.488-.32-2.491-.497-2.491-.497s1.8-.894 2.139-1.37c.342-.476.559-2.397.559-2.397s.903 1.71 1.392 2.03c.491.319 2.49.497 2.49.497s-1.797.893-2.138 1.37z"/><path fill="#EDAD17" d="M232.162 41.033c-1.537-.999-4.841-7.317-4.841-7.317s-1.165 6.978-2.228 8.466c-1.066 1.488-7.171 4.282-7.171 4.282s6.735.554 8.269 1.553c1.533.998 4.841 7.316 4.841 7.316s1.163-6.979 2.229-8.466c1.064-1.488 7.168-4.281 7.168-4.281s-6.735-.555-8.267-1.553zm-1.188 4.663c-.533.744-.871 3.748-.871 3.748s-1.409-2.674-2.176-3.172c-.765-.501-3.894-.778-3.894-.778s2.811-1.396 3.342-2.141c.535-.745.872-3.749.872-3.749s1.411 2.676 2.178 3.174c.768.499 3.894.777 3.894.777s-2.811 1.396-3.345 2.141z"/></svg>