<?xml version="1.0" encoding="utf-8"?>
<!-- Generator: Adobe Illustrator 23.0.1, SVG Export Plug-In . SVG Version: 6.00 Build 0)  -->
<svg version="1.1" id="Layer_1" xmlns="http://www.w3.org/2000/svg" xmlns:xlink="http://www.w3.org/1999/xlink" x="0px" y="0px"
	 viewBox="0 0 81 81" style="enable-background:new 0 0 81 81;" xml:space="preserve">
<style type="text/css">
	.st0{fill:#262262;}
	.st1{fill:#8DC63F;}
</style>
<path class="st0" d="M46.28,61.06c-3.69,0-7.17-1.44-9.78-4.05c-1.56-1.56-2.73-3.49-3.4-5.57c-1.58-4.96-0.28-10.32,3.4-13.99
	l0.71,0.71c-3.41,3.41-4.62,8.38-3.15,12.98c0.63,1.96,1.69,3.7,3.15,5.17c2.42,2.42,5.65,3.76,9.07,3.76
	c3.43,0,6.65-1.33,9.07-3.76s3.76-5.65,3.76-9.07c0-3.43-1.33-6.65-3.76-9.08l0.71-0.71c2.61,2.61,4.05,6.09,4.05,9.78
	c0,3.69-1.44,7.17-4.05,9.78C53.45,59.62,49.98,61.06,46.28,61.06z"/>
<path class="st0" d="M25.18,45.7c-5.39-5.39-5.39-14.17,0-19.56c2.61-2.61,6.09-4.05,9.78-4.05c3.69,0,7.17,1.44,9.78,4.05
	c5,5,5.44,12.92,1.02,18.43l-0.78-0.63c4.1-5.11,3.69-12.46-0.95-17.1c-2.42-2.42-5.65-3.76-9.07-3.76c-3.43,0-6.65,1.33-9.07,3.76
	c-5,5-5,13.15,0,18.15L25.18,45.7z"/>
<polygon class="st0" points="45.51,49.49 40.01,49.49 40.01,43.99 41.01,43.99 41.01,48.49 45.51,48.49 "/>
<polyline class="st1" points="47.87,45.22 44.28,45.22 44.28,41.64 "/>
<polygon class="st0" points="41.41,38.74 40.41,38.74 40.41,34.24 35.91,34.24 35.91,33.24 41.41,33.24 "/>
<polyline class="st1" points="34.44,36.98 37.68,36.98 37.68,40.22 "/>
<path class="st0" d="M55.68,38.51c-0.73-0.73-1.14-1.71-1.14-2.74c0-1.04,0.4-2.01,1.14-2.74c1.51-1.51,3.97-1.51,5.48,0
	c1.51,1.51,1.51,3.97,0,5.48l-0.71-0.71c1.12-1.12,1.12-2.94,0-4.07c-1.12-1.12-2.94-1.12-4.07,0c-0.54,0.54-0.84,1.27-0.84,2.03
	c0,0.77,0.3,1.49,0.84,2.03L55.68,38.51z"/>
<path class="st0" d="M23.15,51.58c-1.04,0-2.01-0.4-2.74-1.14c-1.51-1.51-1.51-3.97,0-5.48l0.71,0.71c-1.12,1.12-1.12,2.95,0,4.07
	c1.09,1.09,2.98,1.09,4.07,0c1.12-1.12,1.12-2.95,0-4.07l0.71-0.71c1.51,1.51,1.51,3.97,0,5.48C25.16,51.17,24.19,51.58,23.15,51.58
	z"/>
<path class="st0" d="M41.71,78.84L3.53,40.66L39.48,4.72l38.18,38.18L41.71,78.84z M5.14,40.66l36.57,36.57l34.34-34.34L39.48,6.33
	L5.14,40.66z"/>
<polygon class="st1" points="32.63,65.28 41.59,74.24 50.55,65.28 "/>
<polygon class="st1" points="48.56,18.28 39.6,9.32 30.64,18.28 "/>
<circle class="st1" cx="58.43" cy="35.74" r="2.13"/>
<circle class="st1" cx="23.12" cy="47.64" r="2.13"/>
</svg>
