<?xml version="1.0" encoding="utf-8"?>
<!-- Generator: Adobe Illustrator 23.0.1, SVG Export Plug-In . SVG Version: 6.00 Build 0)  -->
<svg version="1.1" id="Layer_1" xmlns="http://www.w3.org/2000/svg" xmlns:xlink="http://www.w3.org/1999/xlink" x="0px" y="0px"
	 viewBox="0 0 285.64 82.32" style="enable-background:new 0 0 285.64 82.32;" xml:space="preserve">
<style type="text/css">
	.st0{fill:#8DC63F;}
	.st1{fill:#F15722;}
	.st2{fill:#262262;}
</style>
<g>
	<g>
		<path class="st0" d="M93.71,48.78H82.74v-6.63h9.91c3.77,0,6.27-0.85,7.5-2.55c1.09-1.5,1.63-4.45,1.63-8.86v-22h8.69v23.82
			c0,3.5-0.29,6.17-0.87,8.01c-0.81,2.61-2.35,4.57-4.62,5.89C102.34,48.02,98.58,48.78,93.71,48.78z"/>
		<path class="st0" d="M128.73,25.51h-12.96v-6.06h15.86c8.06,0,12.09,3.65,12.09,10.95v18.39h-20.78c-2.83,0-5.05-0.78-6.68-2.34
			s-2.45-3.68-2.45-6.36c0-3.57,1.16-6.06,3.48-7.47c1.81-1.1,4.56-1.66,8.26-1.66h10.27c0-2.06-0.5-3.49-1.51-4.28
			C133.3,25.9,131.44,25.51,128.73,25.51z M126.12,42.95h9.7v-6.14h-9.15c-1.41,0-2.45,0.15-3.1,0.43
			c-1.05,0.47-1.58,1.35-1.58,2.63c0,1.21,0.35,2.05,1.06,2.5C123.65,42.75,124.67,42.95,126.12,42.95z"/>
		<path class="st0" d="M167.84,48.78h-19.88v-6.06h16.3c2.75,0,4.13-0.99,4.13-2.96c0-1.9-1.38-2.85-4.13-2.85h-6.74
			c-2.3,0-4.03-0.14-5.19-0.41c-1.63-0.38-2.83-1.11-3.61-2.2c-0.89-1.23-1.33-3.07-1.33-5.51c0-6.23,3.45-9.34,10.35-9.34h16.6
			v6.06h-13.69c-1.97,0-3.3,0.15-3.97,0.46c-0.89,0.4-1.33,1.21-1.33,2.44c0,1.63,1.23,2.45,3.69,2.45h7.06
			c2.92,0,5.19,0.56,6.82,1.68c1.99,1.38,2.99,3.56,2.99,6.55c0,2.79-0.74,5.1-2.21,6.94S170.27,48.78,167.84,48.78z"/>
		<path class="st0" d="M192.84,49.41c-3.75,0-6.87-0.83-9.37-2.5c-2.14-1.43-3.75-3.4-4.83-5.92c-0.92-2.16-1.38-4.46-1.38-6.9
			c0-4.09,1.19-7.53,3.58-10.32c2.83-3.3,6.83-4.94,12.01-4.94c4.25,0,7.8,1.21,10.65,3.61c3.26,2.75,4.89,6.64,4.89,11.65
			c0,4.42-1.33,8.03-3.99,10.84C201.56,47.92,197.71,49.41,192.84,49.41z M192.73,43.05c1.9,0,3.52-0.58,4.86-1.74
			c1.81-1.56,2.72-3.93,2.72-7.12c0-2.9-0.73-5.14-2.2-6.74c-1.34-1.45-3.08-2.17-5.22-2.17c-2.21,0-4,0.76-5.38,2.28
			c-1.45,1.61-2.17,3.82-2.17,6.63c0,2.68,0.69,4.83,2.06,6.44C188.78,42.25,190.55,43.05,192.73,43.05z"/>
		<path class="st0" d="M218.62,48.78h-7.69V19.45h14.53c4.36,0,7.51,0.82,9.43,2.44c1.92,1.63,2.88,4.39,2.88,8.29v18.61h-7.85
			v-17.6c0-2.17-0.27-3.57-0.81-4.18c-0.62-0.71-2.03-1.06-4.24-1.06h-6.25V48.78z"/>
		<path class="st0" d="M244.07,21.06V15.7h-3.18V8.75h6.63c0.04,0.11,0.05,0.26,0.05,0.46s0,0.4,0,0.6v1.33c0,0.29,0,0.6,0,0.92
			c0,0.33,0,0.65,0,0.98c0,1.03-0.08,2-0.25,2.89c-0.17,0.9-0.52,1.77-1.06,2.62c-0.3,0.47-0.63,0.9-0.96,1.29
			C244.96,20.24,244.55,20.64,244.07,21.06z"/>
		<path class="st0" d="M270.31,48.78h-19.88v-6.06h16.3c2.75,0,4.13-0.99,4.13-2.96c0-1.9-1.38-2.85-4.13-2.85h-6.74
			c-2.3,0-4.03-0.14-5.19-0.41c-1.63-0.38-2.83-1.11-3.61-2.2c-0.89-1.23-1.33-3.07-1.33-5.51c0-6.23,3.45-9.34,10.35-9.34h16.6
			v6.06h-13.69c-1.97,0-3.3,0.15-3.97,0.46c-0.89,0.4-1.33,1.21-1.33,2.44c0,1.63,1.23,2.45,3.69,2.45h7.06
			c2.92,0,5.19,0.56,6.82,1.68c1.99,1.38,2.99,3.56,2.99,6.55c0,2.79-0.74,5.1-2.21,6.94S272.74,48.78,270.31,48.78z"/>
	</g>
	<g>
		<g>
			<path class="st1" d="M82.66,54.92h1.4l3.31,8.01l3.32-8.01h1.4v9.4h-0.9v-8.37h-0.02l-3.42,8.37h-0.78l-3.39-8.37h-0.02v8.37
				h-0.91V54.92z"/>
			<path class="st1" d="M98.59,54.92h4.98v0.84h-4.08v3.4h3.94V60h-3.94v3.48h4.08v0.84h-4.98V54.92z"/>
			<path class="st1" d="M109.77,54.92h2.66c1.18,0.01,2.17,0.27,2.96,0.78c0.79,0.53,1.34,1.17,1.64,1.92
				c0.29,0.75,0.44,1.43,0.43,2.03c0,0.22-0.02,0.49-0.06,0.8c-0.06,0.32-0.16,0.67-0.31,1.04c-0.15,0.36-0.36,0.72-0.63,1.08
				c-0.28,0.36-0.64,0.68-1.08,0.98c-0.79,0.52-1.78,0.78-2.96,0.78h-2.66V54.92z M110.68,63.47H112c0.43,0.01,0.93-0.03,1.49-0.11
				c0.56-0.07,1.1-0.29,1.64-0.66c0.3-0.24,0.62-0.61,0.94-1.13c0.31-0.51,0.48-1.17,0.49-1.98c-0.02-1.31-0.54-2.34-1.55-3.11
				c-0.74-0.5-1.74-0.74-3.01-0.73h-1.32V63.47z"/>
			<path class="st1" d="M123.58,54.92h0.91v9.4h-0.91V54.92z"/>
			<path class="st1" d="M139.32,61.86c-0.5,0.91-1.13,1.57-1.89,1.99c-0.77,0.42-1.54,0.64-2.3,0.64c-1.3-0.02-2.42-0.48-3.33-1.4
				c-0.94-0.89-1.41-2.04-1.43-3.46c0.02-1.43,0.49-2.59,1.42-3.48c0.89-0.91,2-1.37,3.33-1.38c1.17,0.02,2.12,0.34,2.84,0.94
				c0.71,0.58,1.15,1.12,1.33,1.62h-1.02c-0.25-0.39-0.52-0.71-0.82-0.95c-0.3-0.23-0.61-0.4-0.91-0.51
				c-0.63-0.19-1.11-0.28-1.43-0.27c-1.08,0.02-1.99,0.43-2.71,1.23c-0.73,0.78-1.1,1.72-1.12,2.81c0.02,1.12,0.41,2.06,1.18,2.82
				c0.76,0.77,1.65,1.17,2.67,1.18c0.13,0,0.3-0.02,0.53-0.05c0.23-0.02,0.49-0.09,0.79-0.21c0.3-0.11,0.61-0.29,0.93-0.55
				c0.31-0.24,0.63-0.56,0.94-0.98H139.32z"/>
			<path class="st1" d="M148.01,54.92h1.02l3.91,9.4h-1l-1.32-3.17h-4.24l-1.33,3.17h-0.94L148.01,54.92z M146.74,60.31h3.53
				l-1.75-4.33L146.74,60.31z"/>
			<path class="st1" d="M158.71,54.92h0.91v8.56h3.76v0.84h-4.67V54.92z"/>
			<path class="st1" d="M176.59,54.92h2.31c0.61,0,1.08,0.03,1.43,0.1c0.34,0.07,0.61,0.15,0.81,0.25c1.06,0.56,1.6,1.45,1.62,2.68
				c0,0.7-0.23,1.33-0.69,1.88c-0.46,0.56-1.13,0.89-2.02,0.98l2.57,3.51h-1.15l-3.09-4.25c1.03,0.01,1.68-0.04,1.96-0.14
				c0.51-0.17,0.89-0.44,1.13-0.8c0.25-0.37,0.37-0.76,0.37-1.2c0-0.38-0.09-0.74-0.27-1.07s-0.42-0.58-0.73-0.74
				c-0.48-0.24-1.07-0.36-1.78-0.35h-1.59v8.56h-0.9V54.92z"/>
			<path class="st1" d="M188.62,54.92h4.98v0.84h-4.08v3.4h3.94V60h-3.94v3.48h4.08v0.84h-4.98V54.92z"/>
			<path class="st1" d="M199.76,54.92h4.6v0.84h-3.69v3.42h3.56v0.84h-3.56v4.29h-0.9V54.92z"/>
			<path class="st1" d="M210.24,54.92h4.98v0.84h-4.08v3.4h3.94V60h-3.94v3.48h4.08v0.84h-4.98V54.92z"/>
			<path class="st1" d="M221.37,54.92h2.31c0.61,0,1.08,0.03,1.43,0.1c0.34,0.07,0.61,0.15,0.81,0.25c1.06,0.56,1.6,1.45,1.62,2.68
				c0,0.7-0.23,1.33-0.69,1.88c-0.46,0.56-1.13,0.89-2.02,0.98l2.57,3.51h-1.15l-3.09-4.25c1.03,0.01,1.68-0.04,1.96-0.14
				c0.51-0.17,0.89-0.44,1.13-0.8c0.25-0.37,0.37-0.76,0.37-1.2c0-0.38-0.09-0.74-0.27-1.07s-0.42-0.58-0.73-0.74
				c-0.48-0.24-1.07-0.36-1.78-0.35h-1.59v8.56h-0.9V54.92z"/>
			<path class="st1" d="M233.41,54.92h4.98v0.84h-4.08v3.4h3.94V60h-3.94v3.48h4.08v0.84h-4.98V54.92z"/>
			<path class="st1" d="M244.6,54.92h1.23l5.09,7.8h0.02v-7.8h0.91v9.4h-0.91l-5.41-8.27h-0.02v8.27h-0.91V54.92z"/>
			<path class="st1" d="M266.89,61.86c-0.5,0.91-1.13,1.57-1.89,1.99c-0.77,0.42-1.54,0.64-2.3,0.64c-1.3-0.02-2.42-0.48-3.33-1.4
				c-0.94-0.89-1.41-2.04-1.43-3.46c0.02-1.43,0.49-2.59,1.42-3.48c0.89-0.91,2-1.37,3.33-1.38c1.17,0.02,2.12,0.34,2.84,0.94
				c0.71,0.58,1.15,1.12,1.33,1.62h-1.02c-0.25-0.39-0.52-0.71-0.82-0.95c-0.3-0.23-0.61-0.4-0.91-0.51
				c-0.63-0.19-1.11-0.28-1.43-0.27c-1.08,0.02-1.99,0.43-2.71,1.23c-0.73,0.78-1.1,1.72-1.12,2.81c0.02,1.12,0.41,2.06,1.18,2.82
				c0.76,0.77,1.65,1.17,2.67,1.18c0.13,0,0.3-0.02,0.53-0.05c0.23-0.02,0.49-0.09,0.79-0.21c0.3-0.11,0.61-0.29,0.93-0.55
				c0.31-0.24,0.63-0.56,0.94-0.98H266.89z"/>
			<path class="st1" d="M272.92,54.92h4.98v0.84h-4.08v3.4h3.94V60h-3.94v3.48h4.08v0.84h-4.98V54.92z"/>
		</g>
	</g>
	<path class="st2" d="M48.6,61.72c-3.69,0-7.17-1.44-9.78-4.05c-1.56-1.56-2.73-3.49-3.4-5.57c-1.58-4.96-0.28-10.32,3.4-13.99
		l0.71,0.71c-3.41,3.41-4.62,8.38-3.15,12.98c0.63,1.96,1.69,3.7,3.15,5.17c2.42,2.42,5.65,3.76,9.07,3.76
		c3.43,0,6.65-1.33,9.07-3.76s3.76-5.65,3.76-9.07c0-3.43-1.33-6.65-3.76-9.08l0.71-0.71c2.61,2.61,4.05,6.09,4.05,9.78
		c0,3.69-1.44,7.17-4.05,9.78C55.77,60.28,52.29,61.72,48.6,61.72z"/>
	<path class="st2" d="M27.5,46.36c-5.39-5.39-5.39-14.17,0-19.56c2.61-2.61,6.09-4.05,9.78-4.05c3.69,0,7.17,1.44,9.78,4.05
		c5,5,5.44,12.92,1.02,18.43L47.3,44.6c4.1-5.11,3.69-12.46-0.95-17.1c-2.42-2.42-5.65-3.76-9.07-3.76c-3.43,0-6.65,1.33-9.07,3.76
		c-5,5-5,13.15,0,18.15L27.5,46.36z"/>
	<polygon class="st2" points="47.83,50.15 42.33,50.15 42.33,44.65 43.33,44.65 43.33,49.15 47.83,49.15 	"/>
	<polyline class="st0" points="50.18,45.88 46.6,45.88 46.6,42.3 	"/>
	<polygon class="st2" points="43.73,39.4 42.73,39.4 42.73,34.9 38.23,34.9 38.23,33.9 43.73,33.9 	"/>
	<polyline class="st0" points="36.75,37.64 39.99,37.64 39.99,40.88 	"/>
	<path class="st2" d="M58,39.17c-0.73-0.73-1.14-1.71-1.14-2.74c0-1.04,0.4-2.01,1.14-2.74c1.51-1.51,3.97-1.51,5.48,0
		c1.51,1.51,1.51,3.97,0,5.48l-0.71-0.71c1.12-1.12,1.12-2.94,0-4.07c-1.12-1.12-2.94-1.12-4.07,0c-0.54,0.54-0.84,1.27-0.84,2.03
		c0,0.77,0.3,1.49,0.84,2.03L58,39.17z"/>
	<path class="st2" d="M25.47,52.24c-1.04,0-2.01-0.4-2.74-1.14c-1.51-1.51-1.51-3.97,0-5.48l0.71,0.71c-1.12,1.12-1.12,2.95,0,4.07
		c1.09,1.09,2.98,1.09,4.07,0c1.12-1.12,1.12-2.95,0-4.07l0.71-0.71c1.51,1.51,1.51,3.97,0,5.48C27.48,51.83,26.5,52.24,25.47,52.24
		z"/>
	<path class="st2" d="M44.03,79.5L5.85,41.32L41.8,5.38l38.18,38.18L44.03,79.5z M7.46,41.32l36.57,36.57l34.34-34.34L41.8,6.99
		L7.46,41.32z"/>
	<polygon class="st0" points="34.95,65.94 43.91,74.9 52.87,65.94 	"/>
	<polygon class="st0" points="50.87,18.94 41.91,9.98 32.95,18.94 	"/>
	<circle class="st0" cx="60.75" cy="36.4" r="2.13"/>
	<circle class="st0" cx="25.44" cy="48.3" r="2.13"/>
</g>
</svg>
