<svg xmlns="http://www.w3.org/2000/svg" viewBox="0 0 736 208"><path fill="#F93" d="M736 120c0 48.4-39.6 88-88 88H88c-48.4 0-88-39.6-88-88V88C0 39.6 39.6 0 88 0h560c48.4 0 88 39.6 88 88v32z"/><linearGradient id="a" x1="368" x2="368" y1="-172" y2="20" gradientUnits="userSpaceOnUse" gradientTransform="matrix(1 0 0 -1 0 28)"><stop offset="0" stop-color="#FFEFD2"/><stop offset=".23" stop-color="#FFB23C"/></linearGradient><path fill="url(#a)" d="M728 116c0 46.2-37.8 84-84 84H92c-46.2 0-84-37.8-84-84V92C8 45.8 45.8 8 92 8h552c46.2 0 84 37.8 84 84v24z"/><linearGradient id="b" x1="368" x2="368" y1="-92.016" y2="19.984" gradientUnits="userSpaceOnUse" gradientTransform="matrix(1 0 0 -1 0 28)"><stop offset="0" stop-color="#FEDE9E"/><stop offset="1" stop-color="#FFF"/></linearGradient><path fill="url(#b)" d="M648 120c33.6 0 62.9-19.1 77.7-47-8.6-37.1-42-65-81.7-65H92C52.3 8 18.9 35.9 10.3 73c14.8 27.9 44.1 47 77.7 47h560z"/><path fill="#036" d="M167.8 143.5l18.4-88H210c6.6 0 10.8.1 12.7.3 3.6.4 6.9 1.1 9.8 2.2s5.5 2.7 7.8 4.7 4.4 4.5 6.1 7.3c1.7 2.8 3 6.1 3.9 9.8s1.4 7.8 1.4 12.2c0 9.5-1.8 17.9-5.4 25.2-3.6 7.3-8.2 13.2-13.7 17.5-4.2 3.4-9.6 5.8-16.3 7.4-3.8.9-9.5 1.3-17.4 1.3l-31.1.1zm21.1-14.2h9.2c6.6 0 11.5-.4 14.4-1.2 3-.8 5.7-2.4 8.2-4.6 3.6-3.2 6.6-7.6 9-13 2.4-5.4 3.7-11.8 3.7-19.1 0-6.2-1-10.9-3-14.1s-4.5-5.2-7.5-6.3c-2.1-.7-5.8-1.1-11.1-1.1h-10.5c-.1.1-12.4 59.4-12.4 59.4zm68.7-12.3c0-11.8 3.3-21.2 10-28.2s15.4-10.5 26.3-10.5c9.4 0 16.8 2.6 22 7.8s7.9 12.2 7.9 20.9c0 10.3-3.3 19.2-9.9 26.8-6.6 7.5-15.4 11.3-26.5 11.3-6 0-11.3-1.2-16-3.6-4.6-2.4-8.1-5.8-10.4-10.2s-3.4-9.2-3.4-14.3zm49.1-12.3c0-4.1-1.2-7.4-3.6-9.8s-5.5-3.7-9.2-3.7c-3.7 0-7 1.2-9.9 3.5s-5.1 5.6-6.7 10c-1.6 4.4-2.4 8.4-2.4 12.1 0 4.6 1.2 8.2 3.7 10.9 2.5 2.7 5.6 4 9.4 4 4.7 0 8.7-2 11.9-6.1 4.5-5.7 6.8-12.7 6.8-20.9zm36-24.9H359l-1.7 8.3c4.1-3.5 7.9-6 11.4-7.5s7.3-2.2 11.2-2.2c5.2 0 9.4 1.5 12.4 4.5s4.5 7 4.5 11.9c0 2.2-.7 6.5-2 12.7l-7.5 36.1h-17.2l7.6-36.2c1.1-5.4 1.7-8.6 1.7-9.7 0-2.2-.6-3.9-2-5.2-1.3-1.3-3.1-1.9-5.4-1.9-2.5 0-5.3 1.1-8.4 3.2-3.1 2.1-5.5 4.9-7.3 8.4-1.3 2.5-2.7 7.5-4.3 15.2l-5.5 26.2h-17.2c0-.1 13.4-63.8 13.4-63.8zm84.7 18l-16.8-1.4c1.9-5.7 5.3-10.1 10.1-13.3 4.8-3.2 11.1-4.8 19-4.8 8.2 0 14.3 1.6 18.2 5 3.9 3.3 5.9 7.3 5.9 12.1 0 1.9-.2 4-.5 6.1-.3 2.2-1.5 7.8-3.6 17-1.7 7.6-2.5 12.9-2.5 16 0 2.7.5 5.7 1.4 9.1h-16.8c-.7-2.3-1.1-4.7-1.3-7.2-2.5 2.8-5.4 5-8.7 6.5s-6.6 2.2-9.9 2.2c-5.3 0-9.6-1.7-13.1-5.2-3.4-3.5-5.2-7.9-5.2-13.4 0-6.1 1.9-10.9 5.7-14.6 3.8-3.6 10.5-5.8 20.3-6.6 8.2-.7 13.7-1.5 16.5-2.5.7-2.4 1.1-4.3 1.1-5.8 0-1.8-.7-3.4-2.2-4.6-1.5-1.2-3.7-1.9-6.6-1.9-3.1 0-5.5.6-7.3 1.9-1.8 1.3-3.1 3.1-3.7 5.4zm16.4 16c-1 .3-2.4.5-4.2.8-8.6 1-14.3 2.6-16.9 4.6-1.9 1.4-2.8 3.4-2.8 5.8 0 2 .7 3.7 2.2 5.1 1.4 1.4 3.3 2.1 5.7 2.1 2.6 0 5-.6 7.4-1.9 2.3-1.3 4-2.9 5.2-4.9s2.2-5.1 3-9.3c-.1 0 .4-2.3.4-2.3zm30.9-21.3l2.6-12.8h8.4l2.1-10.2 19.8-11.9-4.6 22.2h10.5l-2.6 12.8h-10.6l-5.6 26.7c-1 4.8-1.5 7.6-1.5 8.3 0 1.3.4 2.4 1.3 3.1.8.7 2.4 1.1 4.6 1.1.8 0 2.7-.1 5.7-.4l-2.7 12.8c-3 .6-6 .9-9.1.9-6.1 0-10.5-1.2-13.3-3.5-2.8-2.3-4.2-5.6-4.2-9.8 0-2 .7-6.5 2.2-13.6l5.3-25.6c0-.1-8.3-.1-8.3-.1zm97.6 24.5h-43.2c0 .7-.1 1.2-.1 1.6 0 4.2 1.2 7.7 3.6 10.3 2.4 2.6 5.4 3.9 8.8 3.9 5.7 0 10.2-3 13.4-8.9l15.4 2.6c-3 6.2-7 10.9-12 14s-10.7 4.7-16.9 4.7c-8.6 0-15.5-2.7-20.9-8.1-5.4-5.4-8-12.6-8-21.5 0-8.7 2.4-16.5 7.3-23.3 6.6-9.2 16-13.8 28.3-13.8 7.8 0 14 2.4 18.6 7.2s6.9 11.6 6.9 20.3c0 3.9-.4 7.7-1.2 11zm-14.5-10.5c0-.8.1-1.3.1-1.7 0-4.7-1.1-8.3-3.2-10.6-2.1-2.4-5-3.5-8.5-3.5s-6.8 1.3-9.6 4-4.7 6.6-5.7 11.9l26.9-.1z"/></svg>