<?xml version="1.0" encoding="utf-8"?>
<!-- Generator: Adobe Illustrator 24.0.0, SVG Export Plug-In . SVG Version: 6.00 Build 0)  -->
<svg version="1.1" id="Layer_1" xmlns="http://www.w3.org/2000/svg" xmlns:xlink="http://www.w3.org/1999/xlink" x="0px" y="0px"
	 viewBox="0 0 454.61 114.61" style="enable-background:new 0 0 454.61 114.61;" xml:space="preserve">
<style type="text/css">
	.st0{fill:#262262;}
	.st1{fill:#8DC63F;}
	.st2{fill:#F15722;}
</style>
<path class="st0" d="M64.49,85.23c-5.38,0-10.45-2.1-14.25-5.9c-2.27-2.27-3.99-5.08-4.95-8.12c-2.3-7.22-0.4-15.03,4.95-20.39
	l1.03,1.03c-4.97,4.97-6.73,12.21-4.6,18.91c0.91,2.86,2.46,5.39,4.6,7.53c3.53,3.53,8.23,5.48,13.22,5.48c5,0,9.69-1.95,13.22-5.48
	c3.53-3.53,5.48-8.23,5.48-13.22c0-5-1.95-9.69-5.48-13.22l1.03-1.03c3.81,3.81,5.9,8.87,5.9,14.25c0,5.38-2.1,10.45-5.9,14.25
	C74.94,83.14,69.88,85.23,64.49,85.23z"/>
<path class="st0" d="M33.75,62.84c-7.86-7.86-7.86-20.65,0-28.51c3.81-3.81,8.87-5.9,14.25-5.9c5.38,0,10.45,2.1,14.25,5.9
	c7.29,7.28,7.92,18.83,1.48,26.85l-1.14-0.91c5.97-7.44,5.38-18.15-1.38-24.91c-3.53-3.53-8.23-5.48-13.22-5.48
	c-5,0-9.69,1.95-13.22,5.48c-7.29,7.29-7.29,19.16,0,26.45L33.75,62.84z"/>
<polygon class="st0" points="63.37,68.37 55.36,68.37 55.36,60.36 56.81,60.36 56.81,66.92 63.37,66.92 "/>
<polyline class="st1" points="66.81,62.15 61.58,62.15 61.58,56.93 "/>
<polygon class="st0" points="57.4,52.71 55.95,52.71 55.95,46.15 49.39,46.15 49.39,44.69 57.4,44.69 "/>
<polyline class="st1" points="47.23,50.14 51.96,50.14 51.96,54.86 "/>
<path class="st0" d="M78.19,52.37c-1.07-1.07-1.65-2.48-1.65-3.99c0-1.51,0.59-2.93,1.65-3.99c2.2-2.2,5.78-2.2,7.99,0
	c2.2,2.2,2.2,5.78,0,7.99l-1.03-1.03c1.63-1.63,1.63-4.29,0-5.92s-4.29-1.63-5.92,0c-0.79,0.79-1.23,1.84-1.23,2.96
	c0,1.12,0.44,2.17,1.23,2.96L78.19,52.37z"/>
<path class="st0" d="M30.79,71.41c-1.51,0-2.93-0.59-3.99-1.66c-2.2-2.2-2.2-5.78,0-7.99l1.03,1.03c-1.63,1.63-1.63,4.29,0,5.93
	c1.58,1.58,4.34,1.58,5.92,0c1.63-1.63,1.63-4.29,0-5.93l1.03-1.03c2.2,2.2,2.2,5.78,0,7.99C33.72,70.82,32.3,71.41,30.79,71.41z"/>
<path class="st0" d="M57.83,111.14L2.2,55.51L54.58,3.13l55.63,55.63L57.83,111.14z M4.55,55.51l53.28,53.28l50.04-50.03L54.58,5.47
	L4.55,55.51z"/>
<polygon class="st1" points="44.61,91.38 57.66,104.43 70.72,91.38 "/>
<polygon class="st1" points="67.81,22.89 54.75,9.83 41.7,22.89 "/>
<circle class="st1" cx="82.2" cy="48.33" r="3.1"/>
<circle class="st1" cx="30.75" cy="65.68" r="3.1"/>
<g>
	<path class="st1" d="M135.11,24.05c0,0-0.23,0-0.41,0c-1.63,0.17-2.21,0.52-2.21,2.79v29.97l-8.13,10.92v-40.9
		c0-2.27-0.58-2.61-2.21-2.79c-0.17,0-0.41,0-0.41,0l-0.29-1.39h0.46c0.93,0,2.09,0.12,2.79,0.12h7.44c0.7,0,1.86-0.12,2.79-0.12
		h0.46L135.11,24.05z"/>
	<path class="st1" d="M187.27,54.61c-0.76,0.41-1.92,0.81-2.5,1.16l-6.56,3.49c-0.58,0.35-1.51,0.99-2.38,1.45l-0.46,0.23
		l-0.35-1.39c0,0,0.23-0.12,0.35-0.17c1.39-0.93,1.63-1.57,0.64-3.54l-1.57-3.19h-15.74l-1.57,3.19c-0.99,1.92-0.75,2.61,0.58,3.54
		c0.17,0.06,0.41,0.17,0.41,0.17l-0.41,1.39l-0.46-0.23c-0.81-0.46-1.74-1.1-2.32-1.45l-6.56-3.49c-0.64-0.35-1.74-0.75-2.5-1.16
		l-0.46-0.23l0.93-1.1c0,0,0.23,0.12,0.35,0.23c1.51,0.52,2.21,0.52,3.25-1.51l16.61-31.19l16.67,31.19
		c1.04,2.03,1.68,2.03,3.25,1.51c0.12-0.12,0.35-0.23,0.35-0.23l0.93,1.1L187.27,54.61z M166.53,36.66l-4.3,8.77h8.66L166.53,36.66z
		"/>
	<path class="st1" d="M235.66,51.41c-0.64,0.64-1.57,1.39-2.09,1.86l-5.17,5.23c-0.52,0.46-1.22,1.39-1.86,2.03l-0.41,0.41
		l-0.7-1.22c0,0,0.12-0.17,0.23-0.35c1.04-1.22,1.16-1.86-0.46-3.49l-10.05-10.11l-10.17,10.11c-1.57,1.63-1.45,2.32-0.46,3.54
		c0.17,0.17,0.35,0.35,0.35,0.35L204.06,61l-0.29-0.41c-0.7-0.64-1.39-1.57-1.92-2.09l-5.23-5.17c-0.46-0.52-1.39-1.22-2.09-1.86
		l-0.29-0.41l1.22-0.76c0,0,0.12,0.17,0.23,0.29c1.34,1.05,1.97,1.16,3.54-0.46l10.17-10.11l-10.17-10.11
		c-1.57-1.63-2.21-1.45-3.54-0.46c-0.12,0.12-0.23,0.29-0.23,0.29l-1.22-0.75l0.29-0.35c0.7-0.64,1.63-1.39,2.09-1.86l5.23-5.29
		c0.52-0.46,1.22-1.39,1.92-2.03l0.29-0.35l0.81,1.22c0,0-0.17,0.17-0.35,0.23c-0.99,1.34-1.1,1.98,0.46,3.6l10.17,10.11
		l10.11-10.11c1.57-1.63,1.51-2.27,0.46-3.6c-0.12-0.06-0.29-0.23-0.29-0.23l0.75-1.22l0.35,0.35c0.7,0.64,1.39,1.57,1.92,2.03
		l5.17,5.29c0.52,0.46,1.45,1.22,2.09,1.86l0.35,0.35l-1.22,0.75c0,0-0.12-0.17-0.29-0.29c-1.28-0.99-1.92-1.16-3.54,0.46
		l-10.11,10.11l10.11,10.05c1.57,1.63,2.27,1.51,3.49,0.46c0.17-0.12,0.35-0.23,0.35-0.23l1.22,0.7L235.66,51.41z"/>
	<path class="st1" d="M263.49,57.57c-9.82,0-17.83-7.96-17.83-17.83s8.02-17.83,17.83-17.83c9.88,0,17.83,7.96,17.83,17.83
		S273.36,57.57,263.49,57.57z M260.88,29.4c-3.78,0.93-6.8,3.95-7.73,7.73h7.73V29.4z M260.88,42.35h-7.73
		c0.99,3.78,3.95,6.8,7.73,7.73V42.35z M266.1,29.4v7.73h7.78C272.9,33.35,269.94,30.33,266.1,29.4z M266.1,42.35v7.73
		c3.83-0.93,6.85-3.95,7.78-7.73H266.1z"/>
	<path class="st1" d="M305.84,57.51c-4.12,0-7.61-1.28-9.99-4.18c0-1.68-0.06-6.62-0.06-8.31l1.45-0.06
		c1.16,3.78,4.3,5.58,7.61,5.58c2.21,0,3.83-1.22,3.83-2.85c0-1.74-0.99-2.79-3.25-4.01l-3.66-2.21c-4.18-2.5-5.81-5.34-5.81-9.47
		c0-5.17,3.49-9.87,10.86-9.87c3.43,0,5.81,0.87,7.49,2.15c0,2.21-0.06,4.42-0.06,7.32l-1.28,0.29c-0.7-2.03-2.61-3.54-5.29-3.54
		c-2.21,0-4.01,1.16-4.01,2.9c0,1.39,0.58,2.21,2.79,3.49l4.71,2.85c3.37,2.03,5.81,4.71,5.81,9.58
		C316.99,53.85,311.07,57.51,305.84,57.51z"/>
	<path class="st1" d="M347.49,57.57c-9.82,0-17.83-7.96-17.83-17.83s8.02-17.83,17.83-17.83c9.88,0,17.83,7.96,17.83,17.83
		S357.37,57.57,347.49,57.57z M344.88,29.4c-3.78,0.93-6.8,3.95-7.73,7.73h7.73V29.4z M344.88,42.35h-7.73
		c0.99,3.78,3.95,6.8,7.73,7.73V42.35z M350.11,29.4v7.73h7.78C356.9,33.35,353.94,30.33,350.11,29.4z M350.11,42.35v7.73
		c3.83-0.93,6.85-3.95,7.78-7.73H350.11z"/>
	<path class="st1" d="M402.33,45.37c0,0,0.06-0.23,0-0.41c-0.17-1.1-0.58-1.74-2.85-1.74h-8.95v11.27l-8.13,8.07V43.22
		c-2.09,0.06-2.5,0.58-2.67,2.21c0,0.17,0,0.41,0,0.41l-1.39,0.29v-0.46c0-0.93,0.12-2.09,0.12-2.79V36.6c0-0.7-0.12-1.86-0.12-2.79
		v-0.52l1.39,0.29c0,0,0,0.23,0,0.46c0.17,1.57,0.58,2.09,2.67,2.15V22.77h17.08c2.26,0,2.67-0.58,2.85-2.21c0-0.17,0-0.41,0-0.41
		l1.39-0.29v0.46c0,0.93-0.17,2.09-0.17,2.79v6.74c0,0.52,0.12,1.28,0.12,2.03l-1.51-0.41c-0.29-0.93-0.93-1.22-2.67-1.22h-8.95
		v5.93h8.95c2.26,0,2.67-0.81,2.85-1.68c0.06-0.23,0-0.46,0-0.46l1.39-0.29v0.52c0,0.93-0.17,2.09-0.17,2.79v5.81
		c0,0.7,0.17,1.39,0.17,2.32v0.46L402.33,45.37z"/>
	<path class="st1" d="M448.45,46.36c0,0,0-0.23,0-0.41c-0.17-1.63-0.52-2.15-2.85-2.15h-8.83v8.83c0,2.27,0.58,2.61,2.21,2.79
		c0.17,0,0.41,0,0.41,0l0.35,1.39h-0.52c-0.93,0-2.09-0.12-2.79-0.12h-7.38c-0.7,0-1.86,0.12-2.79,0.12h-0.52l0.35-1.39
		c0,0,0.23,0,0.41,0c1.63-0.17,2.15-0.52,2.15-2.79V43.8h-8.83c-2.27,0-2.61,0.52-2.79,2.15c0,0.17,0,0.41,0,0.41l-1.39,0.35v-0.52
		c0-0.93,0.12-2.09,0.12-2.79v-7.32c0-0.7-0.12-1.86-0.12-2.79v-0.52l1.39,0.35c0,0,0,0.23,0,0.41c0.17,1.63,0.52,2.15,2.79,2.15
		h8.83v-8.83c0-2.27-0.52-2.61-2.15-2.79c-0.17,0-0.41,0-0.41,0l-0.35-1.39h0.52c0.93,0,2.09,0.12,2.79,0.12h7.38
		c0.7,0,1.86-0.12,2.79-0.12h0.52l-0.35,1.39c0,0-0.23,0-0.41,0c-1.63,0.17-2.21,0.52-2.21,2.79v8.83h8.83
		c2.32,0,2.67-0.52,2.85-2.15c0-0.17,0-0.41,0-0.41l1.39-0.35v0.52c0,0.93-0.12,2.09-0.12,2.79v7.32c0,0.7,0.12,1.86,0.12,2.79v0.52
		L448.45,46.36z"/>
</g>
<g>
	<path class="st2" d="M156.03,91.91V78.25h2.46v1.77h0.13c0.42-1.17,1.14-2.09,2.62-2.09c1.43,0,2.22,0.85,2.44,2.22h0.11
		c0.48-1.24,1.3-2.22,2.94-2.22c2.09,0,2.83,1.54,2.83,4.37v9.61h-2.46v-9.24c0-1.88-0.42-2.52-1.46-2.52
		c-0.93,0-1.61,0.61-1.61,1.85v9.9h-2.46v-9.24c0-1.88-0.4-2.52-1.43-2.52c-0.95,0-1.64,0.61-1.64,1.85v9.9H156.03z"/>
	<path class="st2" d="M172.34,85.1c0-4.39,2.54-7.17,6.43-7.17c3.84,0,6.27,2.75,6.27,6.78v1.09h-9.8v0.45
		c0,2.14,1.43,3.65,3.79,3.65c1.75,0,3.02-0.82,3.79-2.09l1.8,1.59c-0.93,1.59-2.83,2.83-5.64,2.83
		C174.8,92.22,172.34,89.45,172.34,85.1z M175.25,83.75v0.19h6.86v-0.26c0-2.14-1.32-3.55-3.34-3.55
		C176.71,80.13,175.25,81.64,175.25,83.75z"/>
	<path class="st2" d="M197.54,89.58h-0.16c-0.79,1.64-2.12,2.65-4.13,2.65c-3.2,0-5.27-2.46-5.27-7.15c0-4.69,2.06-7.15,5.27-7.15
		c2.01,0,3.34,1.01,4.13,2.65h0.16v-8.26h2.89v19.59h-2.89V89.58z M197.54,87.35V82.8c0-1.67-1.43-2.51-3.1-2.51
		c-2.17,0-3.42,1.46-3.42,3.68v2.22c0,2.22,1.24,3.68,3.42,3.68C196.11,89.87,197.54,89.02,197.54,87.35z"/>
	<path class="st2" d="M205.19,89.58h4.66v-9h-4.66v-2.33h7.55v11.33h4.37v2.33h-11.91V89.58z M209.32,74.2v-0.56
		c0-0.87,0.53-1.56,1.96-1.56c1.46,0,1.99,0.69,1.99,1.56v0.56c0,0.87-0.53,1.56-1.96,1.56C209.85,75.76,209.32,75.07,209.32,74.2z"
		/>
	<path class="st2" d="M220.36,85.08c0-4.37,2.44-7.15,6.46-7.15c2.81,0,4.47,1.32,5.32,3.23l-2.25,1.22
		c-0.48-1.27-1.48-2.07-3.07-2.07c-2.17,0-3.44,1.46-3.44,3.63v2.28c0,2.14,1.24,3.63,3.49,3.63c1.69,0,2.73-0.85,3.36-2.17
		l2.12,1.3c-0.87,1.91-2.65,3.26-5.51,3.26C222.77,92.22,220.36,89.45,220.36,85.08z"/>
	<path class="st2" d="M247.31,91.91c-1.64,0-2.46-0.93-2.62-2.3h-0.13c-0.53,1.64-1.96,2.62-4.1,2.62c-2.78,0-4.58-1.56-4.58-4.13
		c0-2.65,1.93-4.08,5.98-4.08h2.62v-1.06c0-1.83-0.98-2.78-2.94-2.78c-1.75,0-2.78,0.74-3.52,1.88l-1.72-1.4
		c0.77-1.48,2.62-2.73,5.51-2.73c3.44,0,5.56,1.72,5.56,4.84v6.86h1.72v2.28H247.31z M244.48,87.83v-1.99h-2.57
		c-2.12,0-3.12,0.66-3.12,1.88v0.53c0,1.22,0.95,1.85,2.49,1.85C243.13,90.11,244.48,89.18,244.48,87.83z"/>
	<path class="st2" d="M252.16,89.58h4.53V74.65h-4.53v-2.33h7.41v17.26h4.53v2.33h-11.94V89.58z"/>
	<path class="st2" d="M268.07,89.58h3.63v-9h-3.63v-2.33h6.51v3.63h0.16c0.53-1.91,1.72-3.63,4.5-3.63h1.64V81h-2.7
		c-2.36,0-3.6,1.56-3.6,3.47v5.11h4.95v2.33h-11.46V89.58z"/>
	<path class="st2" d="M283.53,85.1c0-4.39,2.54-7.17,6.43-7.17c3.84,0,6.27,2.75,6.27,6.78v1.09h-9.79v0.45
		c0,2.14,1.43,3.65,3.79,3.65c1.75,0,3.02-0.82,3.79-2.09l1.8,1.59c-0.93,1.59-2.83,2.83-5.64,2.83
		C285.99,92.22,283.53,89.45,283.53,85.1z M286.44,83.75v0.19h6.86v-0.26c0-2.14-1.32-3.55-3.34-3.55
		C287.9,80.13,286.44,81.64,286.44,83.75z"/>
	<path class="st2" d="M299.89,89.58h4.37v-9h-4.63v-2.33h4.63v-2.46c0-2.04,1.11-3.47,3.49-3.47h4.61v2.33h-5.22v3.6h5.22v2.33
		h-5.22v9h4.61v2.33h-11.86V89.58z"/>
	<path class="st2" d="M315.3,85.1c0-4.39,2.54-7.17,6.43-7.17c3.84,0,6.27,2.75,6.27,6.78v1.09h-9.79v0.45
		c0,2.14,1.43,3.65,3.79,3.65c1.75,0,3.02-0.82,3.79-2.09l1.8,1.59c-0.93,1.59-2.83,2.83-5.64,2.83
		C317.76,92.22,315.3,89.45,315.3,85.1z M318.21,83.75v0.19h6.86v-0.26c0-2.14-1.32-3.55-3.34-3.55
		C319.67,80.13,318.21,81.64,318.21,83.75z"/>
	<path class="st2" d="M331.61,89.58h3.63v-9h-3.63v-2.33h6.51v3.63h0.16c0.53-1.91,1.72-3.63,4.5-3.63h1.64V81h-2.7
		c-2.36,0-3.6,1.56-3.6,3.47v5.11h4.95v2.33h-11.46V89.58z"/>
	<path class="st2" d="M347.07,85.1c0-4.39,2.54-7.17,6.43-7.17c3.84,0,6.27,2.75,6.27,6.78v1.09h-9.79v0.45
		c0,2.14,1.43,3.65,3.79,3.65c1.75,0,3.02-0.82,3.79-2.09l1.8,1.59c-0.93,1.59-2.83,2.83-5.64,2.83
		C349.53,92.22,347.07,89.45,347.07,85.1z M349.98,83.75v0.19h6.86v-0.26c0-2.14-1.32-3.55-3.34-3.55
		C351.44,80.13,349.98,81.64,349.98,83.75z"/>
	<path class="st2" d="M363.59,91.91V78.25h2.89v2.33h0.13c0.58-1.43,1.69-2.65,3.94-2.65c2.75,0,4.61,1.88,4.61,5.19v8.79h-2.89
		v-8.37c0-2.17-0.98-3.26-2.83-3.26c-1.48,0-2.96,0.77-2.96,2.36v9.27H363.59z"/>
	<path class="st2" d="M379.21,85.08c0-4.37,2.44-7.15,6.46-7.15c2.81,0,4.47,1.32,5.32,3.23l-2.25,1.22
		c-0.48-1.27-1.48-2.07-3.07-2.07c-2.17,0-3.44,1.46-3.44,3.63v2.28c0,2.14,1.24,3.63,3.49,3.63c1.69,0,2.73-0.85,3.36-2.17
		l2.12,1.3c-0.87,1.91-2.65,3.26-5.51,3.26C381.62,92.22,379.21,89.45,379.21,85.08z"/>
	<path class="st2" d="M394.72,85.1c0-4.39,2.54-7.17,6.43-7.17c3.84,0,6.27,2.75,6.27,6.78v1.09h-9.79v0.45
		c0,2.14,1.43,3.65,3.79,3.65c1.75,0,3.02-0.82,3.79-2.09l1.8,1.59c-0.93,1.59-2.83,2.83-5.64,2.83
		C397.18,92.22,394.72,89.45,394.72,85.1z M397.63,83.75v0.19h6.86v-0.26c0-2.14-1.32-3.55-3.34-3.55
		C399.09,80.13,397.63,81.64,397.63,83.75z"/>
</g>
</svg>
